<mxfile host="app.diagrams.net" agent="Mozilla/5.0 (Windows NT 10.0; Win64; x64) AppleWebKit/537.36 (KHTML, like Gecko) Chrome/126.0.0.0 Safari/537.36" version="24.7.4">
  <diagram name="Page-1" id="i2vvhqJjZCUoiRzR79xu">
    <mxGraphModel dx="6077" dy="3779" grid="1" gridSize="10" guides="1" tooltips="1" connect="1" arrows="1" fold="1" page="1" pageScale="1" pageWidth="827" pageHeight="1169" math="0" shadow="0">
      <root>
        <mxCell id="0" />
        <mxCell id="1" parent="0" />
        <mxCell id="PzpZkbXFRJIuLRkjivUc-1" value="&lt;b&gt;&lt;font style=&quot;font-size: 15px;&quot;&gt;Customer&lt;/font&gt;&lt;/b&gt;" style="whiteSpace=wrap;html=1;align=center;" parent="1" vertex="1">
          <mxGeometry x="-20" y="120" width="100" height="40" as="geometry" />
        </mxCell>
        <mxCell id="PzpZkbXFRJIuLRkjivUc-2" value="&lt;b&gt;&lt;font style=&quot;font-size: 15px;&quot;&gt;Beneficiary&lt;/font&gt;&lt;/b&gt;" style="whiteSpace=wrap;html=1;align=center;" parent="1" vertex="1">
          <mxGeometry x="-20" y="360" width="100" height="40" as="geometry" />
        </mxCell>
        <mxCell id="PzpZkbXFRJIuLRkjivUc-3" value="&lt;b&gt;&lt;font style=&quot;font-size: 15px;&quot;&gt;Claim&lt;/font&gt;&lt;/b&gt;" style="whiteSpace=wrap;html=1;align=center;" parent="1" vertex="1">
          <mxGeometry x="1150" y="120" width="100" height="40" as="geometry" />
        </mxCell>
        <mxCell id="PzpZkbXFRJIuLRkjivUc-4" value="&lt;b&gt;&lt;font style=&quot;font-size: 15px;&quot;&gt;Payment&lt;/font&gt;&lt;/b&gt;" style="whiteSpace=wrap;html=1;align=center;" parent="1" vertex="1">
          <mxGeometry x="1150" y="360" width="100" height="40" as="geometry" />
        </mxCell>
        <mxCell id="PzpZkbXFRJIuLRkjivUc-5" value="&lt;b&gt;&lt;font style=&quot;font-size: 15px;&quot;&gt;Policy&lt;/font&gt;&lt;/b&gt;" style="whiteSpace=wrap;html=1;align=center;" parent="1" vertex="1">
          <mxGeometry x="590" y="120" width="100" height="40" as="geometry" />
        </mxCell>
        <mxCell id="PzpZkbXFRJIuLRkjivUc-12" value="&lt;font style=&quot;font-size: 15px;&quot;&gt;DateOfBirth&lt;/font&gt;" style="ellipse;whiteSpace=wrap;html=1;align=center;" parent="1" vertex="1">
          <mxGeometry x="-140" y="180" width="100" height="40" as="geometry" />
        </mxCell>
        <mxCell id="PzpZkbXFRJIuLRkjivUc-14" value="&lt;font style=&quot;font-size: 15px;&quot;&gt;Address&lt;/font&gt;" style="ellipse;whiteSpace=wrap;html=1;align=center;" parent="1" vertex="1">
          <mxGeometry x="100" y="40" width="100" height="40" as="geometry" />
        </mxCell>
        <mxCell id="PzpZkbXFRJIuLRkjivUc-15" value="&lt;font style=&quot;font-size: 15px;&quot;&gt;Name&lt;/font&gt;" style="ellipse;whiteSpace=wrap;html=1;align=center;" parent="1" vertex="1">
          <mxGeometry x="-140" y="40" width="100" height="40" as="geometry" />
        </mxCell>
        <mxCell id="PzpZkbXFRJIuLRkjivUc-16" value="&lt;font style=&quot;font-size: 15px;&quot;&gt;CustomerID&lt;/font&gt;" style="ellipse;whiteSpace=wrap;html=1;align=center;" parent="1" vertex="1">
          <mxGeometry x="-20" y="-10" width="100" height="40" as="geometry" />
        </mxCell>
        <mxCell id="PzpZkbXFRJIuLRkjivUc-17" value="&lt;font style=&quot;font-size: 13px;&quot;&gt;ContactNumber&lt;/font&gt;" style="ellipse;whiteSpace=wrap;html=1;align=center;" parent="1" vertex="1">
          <mxGeometry x="100" y="180" width="100" height="40" as="geometry" />
        </mxCell>
        <mxCell id="PzpZkbXFRJIuLRkjivUc-18" value="" style="endArrow=none;html=1;rounded=0;entryX=0.5;entryY=0;entryDx=0;entryDy=0;exitX=0.5;exitY=1;exitDx=0;exitDy=0;strokeWidth=2;" parent="1" source="PzpZkbXFRJIuLRkjivUc-16" target="PzpZkbXFRJIuLRkjivUc-1" edge="1">
          <mxGeometry relative="1" as="geometry">
            <mxPoint x="190" y="40" as="sourcePoint" />
            <mxPoint x="320" y="100" as="targetPoint" />
          </mxGeometry>
        </mxCell>
        <mxCell id="PzpZkbXFRJIuLRkjivUc-19" value="" style="endArrow=none;html=1;rounded=0;exitX=0;exitY=0;exitDx=0;exitDy=0;entryX=0.5;entryY=1;entryDx=0;entryDy=0;strokeWidth=2;" parent="1" source="PzpZkbXFRJIuLRkjivUc-1" target="PzpZkbXFRJIuLRkjivUc-15" edge="1">
          <mxGeometry relative="1" as="geometry">
            <mxPoint x="100" y="100" as="sourcePoint" />
            <mxPoint x="100" y="220" as="targetPoint" />
          </mxGeometry>
        </mxCell>
        <mxCell id="PzpZkbXFRJIuLRkjivUc-20" value="" style="endArrow=none;html=1;rounded=0;exitX=0.5;exitY=1;exitDx=0;exitDy=0;entryX=1;entryY=0;entryDx=0;entryDy=0;strokeWidth=2;" parent="1" source="PzpZkbXFRJIuLRkjivUc-14" target="PzpZkbXFRJIuLRkjivUc-1" edge="1">
          <mxGeometry relative="1" as="geometry">
            <mxPoint x="150" y="130" as="sourcePoint" />
            <mxPoint x="100" y="90" as="targetPoint" />
          </mxGeometry>
        </mxCell>
        <mxCell id="PzpZkbXFRJIuLRkjivUc-21" value="" style="endArrow=none;html=1;rounded=0;exitX=0.5;exitY=0;exitDx=0;exitDy=0;entryX=1;entryY=1;entryDx=0;entryDy=0;strokeWidth=2;" parent="1" source="PzpZkbXFRJIuLRkjivUc-17" target="PzpZkbXFRJIuLRkjivUc-1" edge="1">
          <mxGeometry relative="1" as="geometry">
            <mxPoint x="300" y="90" as="sourcePoint" />
            <mxPoint x="250" y="130" as="targetPoint" />
          </mxGeometry>
        </mxCell>
        <mxCell id="PzpZkbXFRJIuLRkjivUc-22" value="" style="endArrow=none;html=1;rounded=0;exitX=0;exitY=1;exitDx=0;exitDy=0;entryX=0.5;entryY=0;entryDx=0;entryDy=0;strokeWidth=2;" parent="1" source="PzpZkbXFRJIuLRkjivUc-1" target="PzpZkbXFRJIuLRkjivUc-12" edge="1">
          <mxGeometry relative="1" as="geometry">
            <mxPoint x="300" y="190" as="sourcePoint" />
            <mxPoint x="250" y="170" as="targetPoint" />
          </mxGeometry>
        </mxCell>
        <mxCell id="PzpZkbXFRJIuLRkjivUc-23" value="&lt;font style=&quot;font-size: 15px;&quot;&gt;Policy ID&lt;/font&gt;&lt;div&gt;&lt;font style=&quot;font-size: 15px;&quot;&gt;and Type&lt;/font&gt;&lt;/div&gt;" style="ellipse;whiteSpace=wrap;html=1;align=center;" parent="1" vertex="1">
          <mxGeometry x="460" y="40" width="100" height="40" as="geometry" />
        </mxCell>
        <mxCell id="PzpZkbXFRJIuLRkjivUc-24" value="&lt;font style=&quot;font-size: 13px;&quot;&gt;Start and End Date&lt;/font&gt;" style="ellipse;whiteSpace=wrap;html=1;align=center;" parent="1" vertex="1">
          <mxGeometry x="460" y="180" width="100" height="40" as="geometry" />
        </mxCell>
        <mxCell id="PzpZkbXFRJIuLRkjivUc-26" value="&lt;font style=&quot;font-size: 15px;&quot;&gt;Premium&lt;/font&gt;" style="ellipse;whiteSpace=wrap;html=1;align=center;" parent="1" vertex="1">
          <mxGeometry x="720" y="180" width="100" height="40" as="geometry" />
        </mxCell>
        <mxCell id="PzpZkbXFRJIuLRkjivUc-27" value="&lt;font style=&quot;font-size: 13px;&quot;&gt;CoverageAmount&lt;/font&gt;" style="ellipse;whiteSpace=wrap;html=1;align=center;" parent="1" vertex="1">
          <mxGeometry x="720" y="40" width="100" height="40" as="geometry" />
        </mxCell>
        <mxCell id="PzpZkbXFRJIuLRkjivUc-29" value="" style="endArrow=none;html=1;rounded=0;exitX=0.5;exitY=1;exitDx=0;exitDy=0;entryX=1;entryY=0;entryDx=0;entryDy=0;strokeWidth=2;" parent="1" source="PzpZkbXFRJIuLRkjivUc-27" target="PzpZkbXFRJIuLRkjivUc-5" edge="1">
          <mxGeometry relative="1" as="geometry">
            <mxPoint x="750" y="80" as="sourcePoint" />
            <mxPoint x="700" y="120" as="targetPoint" />
          </mxGeometry>
        </mxCell>
        <mxCell id="PzpZkbXFRJIuLRkjivUc-30" value="" style="endArrow=none;html=1;rounded=0;exitX=0;exitY=0;exitDx=0;exitDy=0;entryX=0.5;entryY=1;entryDx=0;entryDy=0;strokeWidth=2;" parent="1" target="PzpZkbXFRJIuLRkjivUc-23" edge="1">
          <mxGeometry relative="1" as="geometry">
            <mxPoint x="600" y="120" as="sourcePoint" />
            <mxPoint x="550" y="80" as="targetPoint" />
          </mxGeometry>
        </mxCell>
        <mxCell id="PzpZkbXFRJIuLRkjivUc-31" value="" style="endArrow=none;html=1;rounded=0;exitX=0.5;exitY=0;exitDx=0;exitDy=0;entryX=1;entryY=1;entryDx=0;entryDy=0;strokeWidth=2;" parent="1" source="PzpZkbXFRJIuLRkjivUc-26" target="PzpZkbXFRJIuLRkjivUc-5" edge="1">
          <mxGeometry relative="1" as="geometry">
            <mxPoint x="750" y="180" as="sourcePoint" />
            <mxPoint x="700" y="160" as="targetPoint" />
          </mxGeometry>
        </mxCell>
        <mxCell id="PzpZkbXFRJIuLRkjivUc-32" value="" style="endArrow=none;html=1;rounded=0;exitX=0;exitY=1;exitDx=0;exitDy=0;entryX=0.5;entryY=0;entryDx=0;entryDy=0;strokeWidth=2;" parent="1" source="PzpZkbXFRJIuLRkjivUc-5" target="PzpZkbXFRJIuLRkjivUc-24" edge="1">
          <mxGeometry relative="1" as="geometry">
            <mxPoint x="460" y="160" as="sourcePoint" />
            <mxPoint x="410" y="180" as="targetPoint" />
          </mxGeometry>
        </mxCell>
        <mxCell id="PzpZkbXFRJIuLRkjivUc-33" value="&lt;font style=&quot;font-size: 13px;&quot;&gt;ContactNumber&lt;/font&gt;" style="ellipse;whiteSpace=wrap;html=1;align=center;" parent="1" vertex="1">
          <mxGeometry x="100" y="420" width="100" height="40" as="geometry" />
        </mxCell>
        <mxCell id="PzpZkbXFRJIuLRkjivUc-34" value="&lt;font style=&quot;font-size: 15px;&quot;&gt;Relationship&lt;/font&gt;" style="ellipse;whiteSpace=wrap;html=1;align=center;" parent="1" vertex="1">
          <mxGeometry x="-140" y="420" width="100" height="40" as="geometry" />
        </mxCell>
        <mxCell id="PzpZkbXFRJIuLRkjivUc-35" value="&lt;font style=&quot;font-size: 15px;&quot;&gt;Name&lt;/font&gt;" style="ellipse;whiteSpace=wrap;html=1;align=center;" parent="1" vertex="1">
          <mxGeometry x="100" y="300" width="100" height="40" as="geometry" />
        </mxCell>
        <mxCell id="PzpZkbXFRJIuLRkjivUc-36" value="&lt;font style=&quot;font-size: 15px;&quot;&gt;BeneficiaryID&lt;/font&gt;" style="ellipse;whiteSpace=wrap;html=1;align=center;" parent="1" vertex="1">
          <mxGeometry x="-140" y="300" width="100" height="40" as="geometry" />
        </mxCell>
        <mxCell id="PzpZkbXFRJIuLRkjivUc-39" value="" style="endArrow=none;html=1;rounded=0;exitX=0.5;exitY=0;exitDx=0;exitDy=0;entryX=1;entryY=1;entryDx=0;entryDy=0;strokeWidth=2;" parent="1" source="PzpZkbXFRJIuLRkjivUc-33" target="PzpZkbXFRJIuLRkjivUc-2" edge="1">
          <mxGeometry relative="1" as="geometry">
            <mxPoint x="330" y="380" as="sourcePoint" />
            <mxPoint x="490" y="380" as="targetPoint" />
          </mxGeometry>
        </mxCell>
        <mxCell id="PzpZkbXFRJIuLRkjivUc-40" value="" style="endArrow=none;html=1;rounded=0;exitX=0;exitY=0;exitDx=0;exitDy=0;entryX=0.5;entryY=1;entryDx=0;entryDy=0;strokeWidth=2;" parent="1" source="PzpZkbXFRJIuLRkjivUc-2" target="PzpZkbXFRJIuLRkjivUc-36" edge="1">
          <mxGeometry relative="1" as="geometry">
            <mxPoint x="140" y="360" as="sourcePoint" />
            <mxPoint x="90" y="340" as="targetPoint" />
          </mxGeometry>
        </mxCell>
        <mxCell id="PzpZkbXFRJIuLRkjivUc-41" value="" style="endArrow=none;html=1;rounded=0;exitX=0.5;exitY=0;exitDx=0;exitDy=0;entryX=0;entryY=1;entryDx=0;entryDy=0;strokeWidth=2;" parent="1" source="PzpZkbXFRJIuLRkjivUc-34" target="PzpZkbXFRJIuLRkjivUc-2" edge="1">
          <mxGeometry relative="1" as="geometry">
            <mxPoint x="150" y="370" as="sourcePoint" />
            <mxPoint x="100" y="350" as="targetPoint" />
          </mxGeometry>
        </mxCell>
        <mxCell id="PzpZkbXFRJIuLRkjivUc-44" value="&lt;font style=&quot;font-size: 15px;&quot;&gt;PaymentDate&lt;/font&gt;" style="ellipse;whiteSpace=wrap;html=1;align=center;" parent="1" vertex="1">
          <mxGeometry x="1280" y="300" width="100" height="40" as="geometry" />
        </mxCell>
        <mxCell id="PzpZkbXFRJIuLRkjivUc-45" value="&lt;font style=&quot;font-size: 13px;&quot;&gt;PaymentMethod&lt;/font&gt;" style="ellipse;whiteSpace=wrap;html=1;align=center;" parent="1" vertex="1">
          <mxGeometry x="1280" y="420" width="100" height="40" as="geometry" />
        </mxCell>
        <mxCell id="PzpZkbXFRJIuLRkjivUc-46" value="&lt;font style=&quot;font-size: 15px;&quot;&gt;Amount&lt;/font&gt;" style="ellipse;whiteSpace=wrap;html=1;align=center;" parent="1" vertex="1">
          <mxGeometry x="1020" y="420" width="100" height="40" as="geometry" />
        </mxCell>
        <mxCell id="PzpZkbXFRJIuLRkjivUc-48" value="" style="endArrow=none;html=1;rounded=0;exitX=0.5;exitY=0;exitDx=0;exitDy=0;entryX=0.5;entryY=1;entryDx=0;entryDy=0;strokeWidth=2;" parent="1" target="PzpZkbXFRJIuLRkjivUc-43" edge="1">
          <mxGeometry relative="1" as="geometry">
            <mxPoint x="1150" y="360" as="sourcePoint" />
            <mxPoint x="1100" y="340" as="targetPoint" />
          </mxGeometry>
        </mxCell>
        <mxCell id="PzpZkbXFRJIuLRkjivUc-49" value="" style="endArrow=none;html=1;rounded=0;exitX=0.5;exitY=1;exitDx=0;exitDy=0;entryX=1;entryY=0;entryDx=0;entryDy=0;strokeWidth=2;" parent="1" source="PzpZkbXFRJIuLRkjivUc-44" target="PzpZkbXFRJIuLRkjivUc-4" edge="1">
          <mxGeometry relative="1" as="geometry">
            <mxPoint x="1050" y="340" as="sourcePoint" />
            <mxPoint x="1000" y="360" as="targetPoint" />
          </mxGeometry>
        </mxCell>
        <mxCell id="PzpZkbXFRJIuLRkjivUc-50" value="" style="endArrow=none;html=1;rounded=0;exitX=0.5;exitY=0;exitDx=0;exitDy=0;entryX=0;entryY=1;entryDx=0;entryDy=0;strokeWidth=2;" parent="1" source="PzpZkbXFRJIuLRkjivUc-46" edge="1">
          <mxGeometry relative="1" as="geometry">
            <mxPoint x="1100" y="420" as="sourcePoint" />
            <mxPoint x="1150" y="400" as="targetPoint" />
          </mxGeometry>
        </mxCell>
        <mxCell id="PzpZkbXFRJIuLRkjivUc-51" value="" style="endArrow=none;html=1;rounded=0;exitX=0.5;exitY=0;exitDx=0;exitDy=0;entryX=1;entryY=1;entryDx=0;entryDy=0;strokeWidth=2;" parent="1" source="PzpZkbXFRJIuLRkjivUc-45" target="PzpZkbXFRJIuLRkjivUc-4" edge="1">
          <mxGeometry relative="1" as="geometry">
            <mxPoint x="1040" y="420" as="sourcePoint" />
            <mxPoint x="990" y="400" as="targetPoint" />
          </mxGeometry>
        </mxCell>
        <mxCell id="PzpZkbXFRJIuLRkjivUc-52" value="&lt;font style=&quot;font-size: 15px;&quot;&gt;ClaimStatus&lt;/font&gt;" style="ellipse;whiteSpace=wrap;html=1;align=center;" parent="1" vertex="1">
          <mxGeometry x="1280" y="180" width="100" height="40" as="geometry" />
        </mxCell>
        <mxCell id="PzpZkbXFRJIuLRkjivUc-53" value="&lt;font style=&quot;font-size: 15px;&quot;&gt;ClaimDate&lt;/font&gt;" style="ellipse;whiteSpace=wrap;html=1;align=center;" parent="1" vertex="1">
          <mxGeometry x="1280" y="40" width="100" height="40" as="geometry" />
        </mxCell>
        <mxCell id="PzpZkbXFRJIuLRkjivUc-54" value="&lt;font style=&quot;font-size: 15px;&quot;&gt;ClaimID&lt;/font&gt;" style="ellipse;whiteSpace=wrap;html=1;align=center;" parent="1" vertex="1">
          <mxGeometry x="1020" y="40" width="100" height="40" as="geometry" />
        </mxCell>
        <mxCell id="PzpZkbXFRJIuLRkjivUc-55" value="&lt;font style=&quot;font-size: 15px;&quot;&gt;ClaimAmount&lt;/font&gt;" style="ellipse;whiteSpace=wrap;html=1;align=center;" parent="1" vertex="1">
          <mxGeometry x="1020" y="180" width="100" height="40" as="geometry" />
        </mxCell>
        <mxCell id="PzpZkbXFRJIuLRkjivUc-56" value="" style="endArrow=none;html=1;rounded=0;exitX=0.5;exitY=1;exitDx=0;exitDy=0;entryX=0;entryY=0;entryDx=0;entryDy=0;strokeWidth=2;" parent="1" source="PzpZkbXFRJIuLRkjivUc-54" target="PzpZkbXFRJIuLRkjivUc-3" edge="1">
          <mxGeometry relative="1" as="geometry">
            <mxPoint x="580" y="250" as="sourcePoint" />
            <mxPoint x="740" y="250" as="targetPoint" />
          </mxGeometry>
        </mxCell>
        <mxCell id="PzpZkbXFRJIuLRkjivUc-57" value="" style="endArrow=none;html=1;rounded=0;exitX=1;exitY=1;exitDx=0;exitDy=0;entryX=0.5;entryY=0;entryDx=0;entryDy=0;strokeWidth=2;" parent="1" source="PzpZkbXFRJIuLRkjivUc-3" target="PzpZkbXFRJIuLRkjivUc-52" edge="1">
          <mxGeometry relative="1" as="geometry">
            <mxPoint x="929.41" y="160" as="sourcePoint" />
            <mxPoint x="929.41" y="210" as="targetPoint" />
          </mxGeometry>
        </mxCell>
        <mxCell id="PzpZkbXFRJIuLRkjivUc-59" value="" style="endArrow=none;html=1;rounded=0;exitX=0;exitY=1;exitDx=0;exitDy=0;entryX=0.5;entryY=0;entryDx=0;entryDy=0;strokeWidth=2;" parent="1" source="PzpZkbXFRJIuLRkjivUc-3" target="PzpZkbXFRJIuLRkjivUc-55" edge="1">
          <mxGeometry relative="1" as="geometry">
            <mxPoint x="880" y="178.82" as="sourcePoint" />
            <mxPoint x="820" y="160" as="targetPoint" />
          </mxGeometry>
        </mxCell>
        <mxCell id="PzpZkbXFRJIuLRkjivUc-61" value="" style="endArrow=none;html=1;rounded=0;exitX=1;exitY=0;exitDx=0;exitDy=0;entryX=0.5;entryY=1;entryDx=0;entryDy=0;strokeWidth=2;" parent="1" source="PzpZkbXFRJIuLRkjivUc-3" target="PzpZkbXFRJIuLRkjivUc-53" edge="1">
          <mxGeometry relative="1" as="geometry">
            <mxPoint x="840" y="90" as="sourcePoint" />
            <mxPoint x="890" y="130" as="targetPoint" />
          </mxGeometry>
        </mxCell>
        <mxCell id="PzpZkbXFRJIuLRkjivUc-43" value="&lt;font style=&quot;font-size: 15px;&quot;&gt;PaymentID&lt;/font&gt;" style="ellipse;whiteSpace=wrap;html=1;align=center;" parent="1" vertex="1">
          <mxGeometry x="1020" y="300" width="100" height="40" as="geometry" />
        </mxCell>
        <mxCell id="paCQI4WSBI5UCTUzfNTr-1" value="&lt;font style=&quot;font-size: 17px;&quot;&gt;Policies&lt;/font&gt;" style="shape=rhombus;perimeter=rhombusPerimeter;whiteSpace=wrap;html=1;align=center;" parent="1" vertex="1">
          <mxGeometry x="280" y="110" width="120" height="60" as="geometry" />
        </mxCell>
        <mxCell id="paCQI4WSBI5UCTUzfNTr-2" value="&lt;font style=&quot;font-size: 16px;&quot;&gt;Beneficiaries&lt;/font&gt;" style="shape=rhombus;perimeter=rhombusPerimeter;whiteSpace=wrap;html=1;align=center;" parent="1" vertex="1">
          <mxGeometry x="280" y="350" width="120" height="60" as="geometry" />
        </mxCell>
        <mxCell id="paCQI4WSBI5UCTUzfNTr-3" value="&lt;font style=&quot;font-size: 17px;&quot;&gt;Claims&lt;/font&gt;" style="shape=rhombus;perimeter=rhombusPerimeter;whiteSpace=wrap;html=1;align=center;" parent="1" vertex="1">
          <mxGeometry x="840" y="110" width="120" height="60" as="geometry" />
        </mxCell>
        <mxCell id="paCQI4WSBI5UCTUzfNTr-4" value="&lt;font style=&quot;font-size: 16px;&quot;&gt;Payments&lt;/font&gt;" style="shape=rhombus;perimeter=rhombusPerimeter;whiteSpace=wrap;html=1;align=center;" parent="1" vertex="1">
          <mxGeometry x="840" y="350" width="120" height="60" as="geometry" />
        </mxCell>
        <mxCell id="UJ-ozXt2P8fQ9vtdZRnm-1" value="" style="endArrow=none;html=1;rounded=0;exitX=1;exitY=0;exitDx=0;exitDy=0;entryX=0.5;entryY=1;entryDx=0;entryDy=0;strokeWidth=2;" parent="1" source="PzpZkbXFRJIuLRkjivUc-2" target="PzpZkbXFRJIuLRkjivUc-35" edge="1">
          <mxGeometry relative="1" as="geometry">
            <mxPoint x="-10" y="370" as="sourcePoint" />
            <mxPoint x="-80" y="350" as="targetPoint" />
          </mxGeometry>
        </mxCell>
        <mxCell id="UJ-ozXt2P8fQ9vtdZRnm-2" value="" style="edgeStyle=entityRelationEdgeStyle;fontSize=12;html=1;endArrow=ERoneToMany;rounded=0;exitX=1;exitY=0.5;exitDx=0;exitDy=0;entryX=0;entryY=0.5;entryDx=0;entryDy=0;strokeWidth=2;" parent="1" source="paCQI4WSBI5UCTUzfNTr-1" target="PzpZkbXFRJIuLRkjivUc-5" edge="1">
          <mxGeometry width="100" height="100" relative="1" as="geometry">
            <mxPoint x="460" y="310" as="sourcePoint" />
            <mxPoint x="560" y="210" as="targetPoint" />
          </mxGeometry>
        </mxCell>
        <mxCell id="UJ-ozXt2P8fQ9vtdZRnm-3" value="" style="edgeStyle=entityRelationEdgeStyle;fontSize=12;html=1;endArrow=ERoneToMany;rounded=0;exitX=0;exitY=0.5;exitDx=0;exitDy=0;entryX=1;entryY=0.5;entryDx=0;entryDy=0;strokeWidth=2;" parent="1" source="paCQI4WSBI5UCTUzfNTr-2" target="PzpZkbXFRJIuLRkjivUc-2" edge="1">
          <mxGeometry width="100" height="100" relative="1" as="geometry">
            <mxPoint x="240" y="490" as="sourcePoint" />
            <mxPoint x="430" y="490" as="targetPoint" />
          </mxGeometry>
        </mxCell>
        <mxCell id="UJ-ozXt2P8fQ9vtdZRnm-4" value="" style="edgeStyle=entityRelationEdgeStyle;fontSize=12;html=1;endArrow=ERoneToMany;rounded=0;exitX=1;exitY=0.5;exitDx=0;exitDy=0;entryX=0;entryY=0.5;entryDx=0;entryDy=0;strokeWidth=2;" parent="1" edge="1">
          <mxGeometry width="100" height="100" relative="1" as="geometry">
            <mxPoint x="960" y="379.28999999999996" as="sourcePoint" />
            <mxPoint x="1150" y="379.28999999999996" as="targetPoint" />
          </mxGeometry>
        </mxCell>
        <mxCell id="UJ-ozXt2P8fQ9vtdZRnm-5" value="" style="edgeStyle=entityRelationEdgeStyle;fontSize=12;html=1;endArrow=ERoneToMany;rounded=0;exitX=1;exitY=0.5;exitDx=0;exitDy=0;entryX=0;entryY=0.5;entryDx=0;entryDy=0;strokeWidth=2;" parent="1" edge="1">
          <mxGeometry width="100" height="100" relative="1" as="geometry">
            <mxPoint x="960" y="139.29" as="sourcePoint" />
            <mxPoint x="1150" y="139.29" as="targetPoint" />
          </mxGeometry>
        </mxCell>
        <mxCell id="UJ-ozXt2P8fQ9vtdZRnm-6" value="" style="endArrow=none;html=1;rounded=0;entryX=0;entryY=0.5;entryDx=0;entryDy=0;strokeWidth=2;" parent="1" target="paCQI4WSBI5UCTUzfNTr-1" edge="1">
          <mxGeometry relative="1" as="geometry">
            <mxPoint x="80" y="139.29" as="sourcePoint" />
            <mxPoint x="240" y="139.29" as="targetPoint" />
          </mxGeometry>
        </mxCell>
        <mxCell id="UJ-ozXt2P8fQ9vtdZRnm-7" value="" style="endArrow=none;html=1;rounded=0;entryX=0;entryY=0.5;entryDx=0;entryDy=0;strokeWidth=2;" parent="1" target="paCQI4WSBI5UCTUzfNTr-3" edge="1">
          <mxGeometry relative="1" as="geometry">
            <mxPoint x="690" y="140" as="sourcePoint" />
            <mxPoint x="880" y="140" as="targetPoint" />
          </mxGeometry>
        </mxCell>
        <mxCell id="UJ-ozXt2P8fQ9vtdZRnm-9" value="" style="endArrow=none;html=1;rounded=0;exitX=0.5;exitY=1;exitDx=0;exitDy=0;entryX=0.5;entryY=0;entryDx=0;entryDy=0;strokeWidth=2;" parent="1" source="UJ-ozXt2P8fQ9vtdZRnm-15" edge="1">
          <mxGeometry relative="1" as="geometry">
            <mxPoint x="1199.29" y="160" as="sourcePoint" />
            <mxPoint x="1199.29" y="360" as="targetPoint" />
          </mxGeometry>
        </mxCell>
        <mxCell id="UJ-ozXt2P8fQ9vtdZRnm-10" value="" style="endArrow=none;html=1;rounded=0;exitX=1;exitY=0.5;exitDx=0;exitDy=0;entryX=0.25;entryY=1;entryDx=0;entryDy=0;strokeWidth=2;" parent="1" source="paCQI4WSBI5UCTUzfNTr-2" target="PzpZkbXFRJIuLRkjivUc-5" edge="1">
          <mxGeometry relative="1" as="geometry">
            <mxPoint x="550" y="250" as="sourcePoint" />
            <mxPoint x="710" y="250" as="targetPoint" />
            <Array as="points">
              <mxPoint x="615" y="380" />
            </Array>
          </mxGeometry>
        </mxCell>
        <mxCell id="UJ-ozXt2P8fQ9vtdZRnm-11" value="" style="endArrow=none;html=1;rounded=0;exitX=0;exitY=0.5;exitDx=0;exitDy=0;entryX=0.75;entryY=1;entryDx=0;entryDy=0;strokeWidth=2;" parent="1" source="paCQI4WSBI5UCTUzfNTr-4" target="PzpZkbXFRJIuLRkjivUc-5" edge="1">
          <mxGeometry relative="1" as="geometry">
            <mxPoint x="440" y="410" as="sourcePoint" />
            <mxPoint x="655" y="190" as="targetPoint" />
            <Array as="points">
              <mxPoint x="665" y="380" />
            </Array>
          </mxGeometry>
        </mxCell>
        <mxCell id="UJ-ozXt2P8fQ9vtdZRnm-12" value="&lt;font style=&quot;font-size: 16px;&quot;&gt;Benefits&lt;/font&gt;" style="shape=rhombus;perimeter=rhombusPerimeter;whiteSpace=wrap;html=1;align=center;" parent="1" vertex="1">
          <mxGeometry x="-30" y="230" width="120" height="60" as="geometry" />
        </mxCell>
        <mxCell id="UJ-ozXt2P8fQ9vtdZRnm-13" value="" style="endArrow=classic;html=1;rounded=0;entryX=0.5;entryY=1;entryDx=0;entryDy=0;exitX=0.5;exitY=0;exitDx=0;exitDy=0;strokeWidth=2;" parent="1" source="UJ-ozXt2P8fQ9vtdZRnm-12" target="PzpZkbXFRJIuLRkjivUc-1" edge="1">
          <mxGeometry width="50" height="50" relative="1" as="geometry">
            <mxPoint x="370" y="330" as="sourcePoint" />
            <mxPoint x="420" y="280" as="targetPoint" />
          </mxGeometry>
        </mxCell>
        <mxCell id="UJ-ozXt2P8fQ9vtdZRnm-14" value="" style="endArrow=none;html=1;rounded=0;entryX=0.5;entryY=1;entryDx=0;entryDy=0;exitX=0.5;exitY=0;exitDx=0;exitDy=0;strokeWidth=2;" parent="1" source="PzpZkbXFRJIuLRkjivUc-2" target="UJ-ozXt2P8fQ9vtdZRnm-12" edge="1">
          <mxGeometry relative="1" as="geometry">
            <mxPoint x="320" y="310" as="sourcePoint" />
            <mxPoint x="480" y="310" as="targetPoint" />
          </mxGeometry>
        </mxCell>
        <mxCell id="UJ-ozXt2P8fQ9vtdZRnm-15" value="&lt;span style=&quot;font-size: 16px;&quot;&gt;made to&lt;/span&gt;" style="shape=rhombus;perimeter=rhombusPerimeter;whiteSpace=wrap;html=1;align=center;" parent="1" vertex="1">
          <mxGeometry x="1140" y="230" width="120" height="60" as="geometry" />
        </mxCell>
        <mxCell id="UJ-ozXt2P8fQ9vtdZRnm-17" value="" style="endArrow=classic;html=1;rounded=0;entryX=0.5;entryY=1;entryDx=0;entryDy=0;exitX=0.5;exitY=0;exitDx=0;exitDy=0;strokeWidth=2;" parent="1" edge="1">
          <mxGeometry width="50" height="50" relative="1" as="geometry">
            <mxPoint x="1199.44" y="230" as="sourcePoint" />
            <mxPoint x="1199.44" y="160" as="targetPoint" />
          </mxGeometry>
        </mxCell>
        <mxCell id="UJ-ozXt2P8fQ9vtdZRnm-18" value="&lt;font style=&quot;font-size: 15px;&quot;&gt;&lt;b&gt;Agency&lt;/b&gt;&lt;/font&gt;" style="whiteSpace=wrap;html=1;align=center;" parent="1" vertex="1">
          <mxGeometry x="590" y="-430" width="100" height="40" as="geometry" />
        </mxCell>
        <mxCell id="UJ-ozXt2P8fQ9vtdZRnm-21" value="&lt;font style=&quot;font-size: 15px;&quot;&gt;Name&lt;/font&gt;" style="ellipse;whiteSpace=wrap;html=1;align=center;" parent="1" vertex="1">
          <mxGeometry x="720" y="-500" width="100" height="40" as="geometry" />
        </mxCell>
        <mxCell id="UJ-ozXt2P8fQ9vtdZRnm-22" value="&lt;font style=&quot;font-size: 15px;&quot;&gt;AgencyID&lt;/font&gt;" style="ellipse;whiteSpace=wrap;html=1;align=center;" parent="1" vertex="1">
          <mxGeometry x="460" y="-500" width="100" height="40" as="geometry" />
        </mxCell>
        <mxCell id="UJ-ozXt2P8fQ9vtdZRnm-23" value="&lt;font style=&quot;font-size: 15px;&quot;&gt;Address&lt;/font&gt;" style="ellipse;whiteSpace=wrap;html=1;align=center;" parent="1" vertex="1">
          <mxGeometry x="460" y="-360" width="100" height="40" as="geometry" />
        </mxCell>
        <mxCell id="UJ-ozXt2P8fQ9vtdZRnm-24" value="&lt;font style=&quot;font-size: 13px;&quot;&gt;ContactNumber&lt;/font&gt;" style="ellipse;whiteSpace=wrap;html=1;align=center;" parent="1" vertex="1">
          <mxGeometry x="720" y="-360" width="100" height="40" as="geometry" />
        </mxCell>
        <mxCell id="UJ-ozXt2P8fQ9vtdZRnm-25" value="&lt;span style=&quot;font-size: 15px;&quot;&gt;&lt;b&gt;Agent&lt;/b&gt;&lt;/span&gt;" style="whiteSpace=wrap;html=1;align=center;" parent="1" vertex="1">
          <mxGeometry x="590" y="-170" width="100" height="40" as="geometry" />
        </mxCell>
        <mxCell id="UJ-ozXt2P8fQ9vtdZRnm-26" value="&lt;font style=&quot;font-size: 15px;&quot;&gt;Name&lt;/font&gt;" style="ellipse;whiteSpace=wrap;html=1;align=center;" parent="1" vertex="1">
          <mxGeometry x="720" y="-240" width="100" height="40" as="geometry" />
        </mxCell>
        <mxCell id="UJ-ozXt2P8fQ9vtdZRnm-27" value="&lt;font style=&quot;font-size: 15px;&quot;&gt;AgentID&lt;/font&gt;" style="ellipse;whiteSpace=wrap;html=1;align=center;" parent="1" vertex="1">
          <mxGeometry x="460" y="-240" width="100" height="40" as="geometry" />
        </mxCell>
        <mxCell id="UJ-ozXt2P8fQ9vtdZRnm-28" value="&lt;font style=&quot;font-size: 13px;&quot;&gt;ContactNumber&lt;/font&gt;" style="ellipse;whiteSpace=wrap;html=1;align=center;" parent="1" vertex="1">
          <mxGeometry x="460" y="-100" width="100" height="40" as="geometry" />
        </mxCell>
        <mxCell id="UJ-ozXt2P8fQ9vtdZRnm-29" value="&lt;font style=&quot;font-size: 15px;&quot;&gt;Email&lt;/font&gt;" style="ellipse;whiteSpace=wrap;html=1;align=center;" parent="1" vertex="1">
          <mxGeometry x="720" y="-100" width="100" height="40" as="geometry" />
        </mxCell>
        <mxCell id="UJ-ozXt2P8fQ9vtdZRnm-30" value="&lt;font style=&quot;font-size: 15px;&quot;&gt;Belongs&lt;/font&gt;" style="shape=rhombus;perimeter=rhombusPerimeter;whiteSpace=wrap;html=1;align=center;" parent="1" vertex="1">
          <mxGeometry x="580" y="-310" width="120" height="60" as="geometry" />
        </mxCell>
        <mxCell id="UJ-ozXt2P8fQ9vtdZRnm-31" value="&lt;font style=&quot;font-size: 15px;&quot;&gt;Handles&lt;/font&gt;" style="shape=rhombus;perimeter=rhombusPerimeter;whiteSpace=wrap;html=1;align=center;" parent="1" vertex="1">
          <mxGeometry x="580" y="-40" width="120" height="60" as="geometry" />
        </mxCell>
        <mxCell id="UJ-ozXt2P8fQ9vtdZRnm-32" value="" style="endArrow=none;html=1;rounded=0;exitX=0.5;exitY=1;exitDx=0;exitDy=0;entryX=0.5;entryY=0;entryDx=0;entryDy=0;strokeWidth=2;" parent="1" source="UJ-ozXt2P8fQ9vtdZRnm-18" target="UJ-ozXt2P8fQ9vtdZRnm-30" edge="1">
          <mxGeometry relative="1" as="geometry">
            <mxPoint x="580" y="-150" as="sourcePoint" />
            <mxPoint x="740" y="-150" as="targetPoint" />
          </mxGeometry>
        </mxCell>
        <mxCell id="UJ-ozXt2P8fQ9vtdZRnm-34" value="" style="fontSize=12;html=1;endArrow=ERoneToMany;rounded=0;exitX=0.5;exitY=1;exitDx=0;exitDy=0;entryX=0.5;entryY=0;entryDx=0;entryDy=0;strokeWidth=2;" parent="1" source="UJ-ozXt2P8fQ9vtdZRnm-30" target="UJ-ozXt2P8fQ9vtdZRnm-25" edge="1">
          <mxGeometry width="100" height="100" relative="1" as="geometry">
            <mxPoint x="975" y="-200" as="sourcePoint" />
            <mxPoint x="1165" y="-200" as="targetPoint" />
          </mxGeometry>
        </mxCell>
        <mxCell id="UJ-ozXt2P8fQ9vtdZRnm-35" value="" style="endArrow=none;html=1;rounded=0;exitX=0.5;exitY=1;exitDx=0;exitDy=0;entryX=0.494;entryY=0;entryDx=0;entryDy=0;entryPerimeter=0;strokeWidth=2;" parent="1" target="UJ-ozXt2P8fQ9vtdZRnm-31" edge="1">
          <mxGeometry relative="1" as="geometry">
            <mxPoint x="639.33" y="-130" as="sourcePoint" />
            <mxPoint x="639.33" y="-50" as="targetPoint" />
          </mxGeometry>
        </mxCell>
        <mxCell id="UJ-ozXt2P8fQ9vtdZRnm-36" value="" style="fontSize=12;html=1;endArrow=ERoneToMany;rounded=0;exitX=0.5;exitY=1;exitDx=0;exitDy=0;entryX=0.5;entryY=0;entryDx=0;entryDy=0;strokeWidth=2;" parent="1" target="PzpZkbXFRJIuLRkjivUc-5" edge="1">
          <mxGeometry width="100" height="100" relative="1" as="geometry">
            <mxPoint x="639.33" y="20" as="sourcePoint" />
            <mxPoint x="639.33" y="100" as="targetPoint" />
          </mxGeometry>
        </mxCell>
        <mxCell id="UJ-ozXt2P8fQ9vtdZRnm-37" value="" style="endArrow=none;html=1;rounded=0;entryX=0.5;entryY=1;entryDx=0;entryDy=0;exitX=1;exitY=0;exitDx=0;exitDy=0;strokeWidth=2;" parent="1" source="UJ-ozXt2P8fQ9vtdZRnm-18" target="UJ-ozXt2P8fQ9vtdZRnm-21" edge="1">
          <mxGeometry relative="1" as="geometry">
            <mxPoint x="520" y="-80" as="sourcePoint" />
            <mxPoint x="680" y="-80" as="targetPoint" />
          </mxGeometry>
        </mxCell>
        <mxCell id="UJ-ozXt2P8fQ9vtdZRnm-38" value="" style="endArrow=none;html=1;rounded=0;entryX=0.5;entryY=1;entryDx=0;entryDy=0;exitX=1;exitY=0;exitDx=0;exitDy=0;strokeWidth=2;" parent="1" edge="1">
          <mxGeometry relative="1" as="geometry">
            <mxPoint x="690" y="-170" as="sourcePoint" />
            <mxPoint x="770" y="-200" as="targetPoint" />
          </mxGeometry>
        </mxCell>
        <mxCell id="UJ-ozXt2P8fQ9vtdZRnm-39" value="" style="endArrow=none;html=1;rounded=0;entryX=0.5;entryY=0;entryDx=0;entryDy=0;strokeWidth=2;" parent="1" target="UJ-ozXt2P8fQ9vtdZRnm-24" edge="1">
          <mxGeometry relative="1" as="geometry">
            <mxPoint x="690" y="-390" as="sourcePoint" />
            <mxPoint x="790" y="-440" as="targetPoint" />
          </mxGeometry>
        </mxCell>
        <mxCell id="UJ-ozXt2P8fQ9vtdZRnm-40" value="" style="endArrow=none;html=1;rounded=0;entryX=0.5;entryY=0;entryDx=0;entryDy=0;strokeWidth=2;" parent="1" edge="1">
          <mxGeometry relative="1" as="geometry">
            <mxPoint x="690" y="-130" as="sourcePoint" />
            <mxPoint x="770" y="-100" as="targetPoint" />
          </mxGeometry>
        </mxCell>
        <mxCell id="UJ-ozXt2P8fQ9vtdZRnm-41" value="" style="endArrow=none;html=1;rounded=0;entryX=0;entryY=0;entryDx=0;entryDy=0;exitX=0.5;exitY=1;exitDx=0;exitDy=0;strokeWidth=2;" parent="1" source="UJ-ozXt2P8fQ9vtdZRnm-22" target="UJ-ozXt2P8fQ9vtdZRnm-18" edge="1">
          <mxGeometry relative="1" as="geometry">
            <mxPoint x="700" y="-420" as="sourcePoint" />
            <mxPoint x="780" y="-450" as="targetPoint" />
          </mxGeometry>
        </mxCell>
        <mxCell id="UJ-ozXt2P8fQ9vtdZRnm-42" value="" style="endArrow=none;html=1;rounded=0;entryX=0;entryY=0;entryDx=0;entryDy=0;exitX=0.5;exitY=1;exitDx=0;exitDy=0;strokeWidth=2;" parent="1" edge="1">
          <mxGeometry relative="1" as="geometry">
            <mxPoint x="510" y="-200" as="sourcePoint" />
            <mxPoint x="590" y="-170" as="targetPoint" />
          </mxGeometry>
        </mxCell>
        <mxCell id="UJ-ozXt2P8fQ9vtdZRnm-43" value="" style="endArrow=none;html=1;rounded=0;entryX=0;entryY=1;entryDx=0;entryDy=0;exitX=0.5;exitY=0;exitDx=0;exitDy=0;strokeWidth=2;" parent="1" source="UJ-ozXt2P8fQ9vtdZRnm-23" target="UJ-ozXt2P8fQ9vtdZRnm-18" edge="1">
          <mxGeometry relative="1" as="geometry">
            <mxPoint x="530" y="-440" as="sourcePoint" />
            <mxPoint x="610" y="-410" as="targetPoint" />
          </mxGeometry>
        </mxCell>
        <mxCell id="UJ-ozXt2P8fQ9vtdZRnm-44" value="" style="endArrow=none;html=1;rounded=0;entryX=0;entryY=1;entryDx=0;entryDy=0;exitX=0.5;exitY=0;exitDx=0;exitDy=0;strokeWidth=2;" parent="1" edge="1">
          <mxGeometry relative="1" as="geometry">
            <mxPoint x="510" y="-100" as="sourcePoint" />
            <mxPoint x="590" y="-130" as="targetPoint" />
          </mxGeometry>
        </mxCell>
        <mxCell id="13t0JDCObwdm-s35wQAx-1" value="&lt;h1 style=&quot;margin-top: 0px; font-size: 38px;&quot;&gt;&amp;nbsp; &amp;nbsp; &amp;nbsp;&lt;u&gt; Life Insurance Portal ER Diagram&lt;/u&gt;&lt;/h1&gt;" style="text;html=1;whiteSpace=wrap;overflow=hidden;rounded=0;align=center;" vertex="1" parent="1">
          <mxGeometry x="240" y="-630" width="750" height="120" as="geometry" />
        </mxCell>
      </root>
    </mxGraphModel>
  </diagram>
</mxfile>
